<svg width="100" height="24" xmlns="http://www.w3.org/2000/svg" viewBox="0 0 438.94 104.12">
    <path fill="#14161a" d="M35.94,103.23a35.21,35.21,0,0,0,14.4-3.06A35.9,35.9,0,0,0,62.06,92L48.55,79.27a17,17,0,0,1-12.61,5.48,17.51,17.51,0,0,1-14.78-8.16H71.75v-9.3A35.9,35.9,0,0,0,35.94,31.35,36.05,36.05,0,0,0,10.45,41.93a36,36,0,0,0,0,50.72A36.1,36.1,0,0,0,35.94,103.23ZM21.16,58.11a17.32,17.32,0,0,1,14.78-8.28,17.65,17.65,0,0,1,14.78,8.28Z"/>
    <path fill="#14161a" d="M115.73,102.72h22.68L112.54,67l25.62-35.3H115.09L101,51.49,87.06,31.73H63.61L89.48,66.91,63.73,102.72H86.29l14.78-19.63Z"/>
    <path fill="#14161a" d="M180.68,53.14a37.67,37.67,0,0,0-7.78-11.59,39.28,39.28,0,0,0-11.59-7.78A36,36,0,0,0,147.16,31V50.08a17.21,17.21,0,1,1,0,34.41v19.12a38.45,38.45,0,0,0,14.15-2.8A37.85,37.85,0,0,0,172.9,93a39.2,39.2,0,0,0,7.78-11.6,35.93,35.93,0,0,0,2.8-14.14A35.53,35.53,0,0,0,180.68,53.14Z"/>
    <path fill="#7a8599" d="M246,41.67a31.94,31.94,0,0,0-22.82-9.43,30.65,30.65,0,0,0-13.12,2.81V0L191,6.37V61.68a22.1,22.1,0,0,0-.13,2.93H191v38.11h19.12v-40a13.26,13.26,0,0,1,26.38,1.91v38.11h19.11V64.61A32.35,32.35,0,0,0,246,41.67Z"/>
    <path fill="#7a8599" d="M298,103.61A36.14,36.14,0,0,0,323.74,93a39.36,39.36,0,0,0,7.77-11.6,35.93,35.93,0,0,0,2.8-14.14,35.53,35.53,0,0,0-2.8-14.15,37.82,37.82,0,0,0-7.77-11.59,39.33,39.33,0,0,0-11.6-7.78,37.13,37.13,0,0,0-28.29,0,39.2,39.2,0,0,0-11.6,7.78,39.44,39.44,0,0,0-7.77,11.59,37.74,37.74,0,0,0-2.81,14.15,38.21,38.21,0,0,0,2.81,14.14A39.36,39.36,0,0,0,272.25,93a39.59,39.59,0,0,0,11.6,7.78A38.4,38.4,0,0,0,298,103.61Zm0-53.53a17.21,17.21,0,1,1-17.2,17.21A17.31,17.31,0,0,1,298,50.08Z"/>
    <path fill="#7a8599" d="M368.29,103.48a23.32,23.32,0,0,0,0-46.64h-5.35a3.38,3.38,0,0,1,0-6.76h26.63v-20H362.94a23.39,23.39,0,0,0,0,46.77h5.35a3.37,3.37,0,0,1,3.31,3.31,3.28,3.28,0,0,1-3.31,3.31H338.47v20Z"/>
    <path fill="#7a8599" d="M438.94,49.57V31.73H418.68V8.92l-19.12,6.37V64.74A39,39,0,0,0,402.62,80a40.12,40.12,0,0,0,20.9,21,39.62,39.62,0,0,0,15.42,3.06V85a20.23,20.23,0,0,1-20.26-20.26V49.57Z"/>
</svg>