<svg width="116" height="26" viewBox="0 0 116 26" fill="none" xmlns="http://www.w3.org/2000/svg">
<path d="M9.49765 25.1373C10.809 25.1387 12.1058 24.8848 13.3032 24.3921C14.4698 23.9269 15.5231 23.2503 16.4005 22.4027L12.8301 19.3028C12.4061 19.7268 11.8907 20.0645 11.3168 20.2943C10.743 20.5241 10.1233 20.6409 9.49765 20.6372C8.7176 20.6362 7.95049 20.4535 7.2676 20.1061C6.58471 19.7587 6.00821 19.2579 5.59168 18.6502H18.9613V16.3856C18.9641 14.0692 17.969 11.8465 16.1946 10.2056C14.4202 8.56467 12.0116 7.63975 9.49765 7.63394C8.2462 7.63466 7.00716 7.86255 5.85132 8.3046C4.69548 8.74665 3.64548 9.3942 2.76131 10.2103C0.99256 11.8523 0 14.0721 0 16.3856C0 18.6991 0.99256 20.9189 2.76131 22.561C4.54781 24.2079 6.97051 25.1345 9.49765 25.1373ZM5.59168 14.1502C6.00086 13.534 6.57493 13.0251 7.25887 12.672C7.94281 12.319 8.7137 12.1337 9.49765 12.134C10.28 12.1412 11.0478 12.3297 11.7303 12.682C12.4129 13.0344 12.9883 13.5393 13.4036 14.1502H5.59168Z" fill="#14161A"/>
<path d="M30.5841 25.0131H36.5778L29.741 16.315L36.5117 7.71918H30.4149L26.6913 12.5382L23.0073 7.72648H16.8101L23.6469 16.2931L16.8418 25.0131H22.8039L26.7098 20.233L30.5841 25.0131Z" fill="#14161A"/>
<path d="M47.7487 12.94C47.2601 11.8894 46.5628 10.9322 45.6926 10.1177C44.8026 9.32278 43.7652 8.68116 42.6297 8.22323C41.4453 7.76833 40.1733 7.53889 38.8902 7.54871V12.1948C39.4965 12.1814 40.0997 12.2798 40.6641 12.4843C41.2285 12.6887 41.7429 12.9952 42.1769 13.3856C42.6109 13.7759 42.9557 14.2423 43.1912 14.7573C43.4267 15.2723 43.548 15.8255 43.548 16.3844C43.548 16.9432 43.4267 17.4964 43.1912 18.0114C42.9557 18.5264 42.6109 18.9928 42.1769 19.3832C41.7429 19.7736 41.2285 20.08 40.6641 20.2845C40.0997 20.489 39.4965 20.5874 38.8902 20.5739V25.2298C40.1722 25.2219 41.441 24.9906 42.6297 24.548C43.7699 24.0947 44.8086 23.4498 45.6926 22.6462C46.556 21.8256 47.2524 20.8689 47.7487 19.8215C48.2452 18.7316 48.4969 17.5603 48.4886 16.3783C48.4992 15.1977 48.2474 14.0275 47.7487 12.94Z" fill="#14161A"/>
<path d="M65.011 10.147C64.2215 9.41459 63.2816 8.83438 62.2462 8.44014C61.2108 8.04589 60.1006 7.84552 58.9803 7.85068C57.7839 7.84001 56.5997 8.07369 55.513 8.53494V0L50.4759 1.55114V15.0195C50.4474 15.2564 50.4359 15.4948 50.4416 15.733H50.4759V25.0131H55.5289V15.2728C55.6571 14.4659 56.112 13.7336 56.8021 13.223C57.4922 12.7124 58.3665 12.4614 59.2492 12.5203C60.1319 12.5792 60.9578 12.9436 61.5609 13.5405C62.164 14.1374 62.4996 14.9224 62.5004 15.7379V25.018H67.5507V15.733C67.5483 14.6936 67.3226 13.6648 66.8867 12.7061C66.4509 11.7474 65.8134 10.8776 65.011 10.147Z" fill="#7A8599"/>
<path d="M78.7533 25.2298C80.0162 25.235 81.2677 25.0093 82.4353 24.5658C83.603 24.1223 84.6635 23.4699 85.5557 22.6462C86.4174 21.8249 87.1128 20.8683 87.6091 19.8215C88.1057 18.7316 88.3574 17.5603 88.3491 16.3783C88.3607 15.1952 88.1089 14.0225 87.6091 12.9327C87.1205 11.8827 86.4242 10.9257 85.5557 10.1104C84.6647 9.31545 83.6265 8.67384 82.4901 8.21593C80.0957 7.30687 77.4083 7.30687 75.0138 8.21593C73.8771 8.67324 72.8388 9.31492 71.9482 10.1104C71.0872 10.9312 70.3918 11.8869 69.8948 12.9327C69.4091 14.0265 69.157 15.1964 69.1522 16.3783C69.1604 17.5591 69.4124 18.7276 69.8948 19.8215C70.3911 20.8683 71.0865 21.8249 71.9482 22.6462C72.8402 23.4401 73.8782 24.0816 75.0138 24.5407C76.2018 24.9861 77.4707 25.2199 78.7533 25.2298ZM78.7533 12.1948C79.6529 12.1944 80.5325 12.4397 81.2808 12.8999C82.0291 13.3601 82.6125 14.0145 82.9571 14.7802C83.3018 15.5459 83.3922 16.3886 83.217 17.2017C83.0418 18.0148 82.6089 18.7617 81.9729 19.3481C81.3369 19.9344 80.5265 20.3338 79.6442 20.4957C78.7619 20.6576 77.8473 20.5747 77.016 20.2576C76.1848 19.9405 75.4743 19.4033 74.9745 18.7141C74.4746 18.0249 74.2078 17.2146 74.2078 16.3856C74.2147 15.2765 74.6958 14.2147 75.5466 13.4302C76.3975 12.6457 77.5496 12.2019 78.7533 12.1948Z" fill="#7A8599"/>
<path d="M97.329 25.1982C98.9635 25.1982 100.531 24.5999 101.687 23.5349C102.843 22.47 103.492 21.0256 103.492 19.5196C103.492 18.0135 102.843 16.5691 101.687 15.5042C100.531 14.4392 98.9635 13.841 97.329 13.841H95.9152C95.6783 13.841 95.4511 13.7542 95.2836 13.5999C95.116 13.4455 95.0219 13.2362 95.0219 13.0179C95.0219 12.7996 95.116 12.5903 95.2836 12.4359C95.4511 12.2816 95.6783 12.1948 95.9152 12.1948H102.953V7.3247H95.9152C94.2983 7.35551 92.7588 7.96899 91.6271 9.03355C90.4954 10.0981 89.8616 11.5289 89.8616 13.0191C89.8616 14.5093 90.4954 15.9401 91.6271 17.0047C92.7588 18.0693 94.2983 18.6827 95.9152 18.7135H97.329C97.5598 18.7173 97.7799 18.8034 97.9431 18.9538C98.1062 19.1041 98.1997 19.307 98.2038 19.5196C98.2048 19.6257 98.1829 19.7309 98.1394 19.8292C98.0958 19.9274 98.0314 20.0166 97.9499 20.0917C97.8685 20.1667 97.7716 20.226 97.665 20.2662C97.5584 20.3064 97.4442 20.3265 97.329 20.3256H89.4484V25.1957L97.329 25.1982Z" fill="#7A8599"/>
<path d="M116 12.0707V7.72648H110.646V2.17207L105.593 3.72322V15.7647C105.589 17.0408 105.864 18.3046 106.402 19.4806C107.467 21.772 109.443 23.6015 111.925 24.5942C113.216 25.0909 114.601 25.3443 116 25.3394V20.6981C115.297 20.6991 114.6 20.5721 113.95 20.3245C113.3 20.077 112.709 19.7136 112.212 19.2553C111.714 18.797 111.32 18.2527 111.051 17.6538C110.783 17.0548 110.645 16.4128 110.646 15.7647V12.0707H116Z" fill="#7A8599"/>
</svg>
