<?xml version="1.0" standalone="no"?>
<!DOCTYPE svg PUBLIC "-//W3C//DTD SVG 20010904//EN"
 "http://www.w3.org/TR/2001/REC-SVG-20010904/DTD/svg10.dtd">
<svg version="1.0" xmlns="http://www.w3.org/2000/svg"
 width="700.000000pt" height="700.000000pt" viewBox="0 0 700.000000 700.000000"
 preserveAspectRatio="xMidYMid meet">
<metadata>
Created by potrace 1.14, written by Peter Selinger 2001-2017
</metadata>
<g transform="translate(0.000000,700.000000) scale(0.100000,-0.100000)"
fill="#000000" stroke="none">
<path d="M1505 6984 c-526 -80 -940 -342 -1228 -779 -78 -120 -178 -334 -202
-435 -2 -8 -9 -31 -15 -50 -5 -19 -20 -84 -33 -145 l-22 -110 0 -1955 c0
-1551 3 -1970 13 -2030 25 -145 54 -249 114 -410 38 -101 194 -364 253 -426 5
-6 37 -41 70 -79 215 -243 520 -424 865 -514 73 -19 109 -25 240 -41 73 -9
3904 -8 3935 1 18 6 43 11 125 26 174 31 413 129 585 241 100 65 106 69 214
163 247 214 435 520 521 847 21 80 24 95 45 227 16 98 20 3838 4 3945 -5 36
-12 83 -15 104 -29 200 -141 480 -267 666 -170 251 -417 468 -670 589 -177 84
-319 130 -482 156 -16 3 -57 9 -90 14 -36 6 -809 10 -1965 9 -1558 0 -1921 -3
-1995 -14z"/>
</g>
</svg>
